<svg width="130" height="54" viewBox="0 0 130 54" fill="none" xmlns="http://www.w3.org/2000/svg">
<path d="M8.08594 26.6445V14.9375H12.1875V26.6445C12.1875 27.7852 11.9258 28.7734 11.4023 29.6094C10.8867 30.4453 10.1836 31.0938 9.29297 31.5547C8.41016 32.0078 7.41797 32.2344 6.31641 32.2344C5.17578 32.2344 4.16016 32.043 3.26953 31.6602C2.38672 31.2773 1.69141 30.6875 1.18359 29.8906C0.683594 29.0938 0.433594 28.0781 0.433594 26.8438H4.55859C4.55859 27.4219 4.625 27.875 4.75781 28.2031C4.89062 28.5234 5.08594 28.75 5.34375 28.8828C5.60938 29.0078 5.93359 29.0703 6.31641 29.0703C6.69141 29.0703 7.00781 28.9766 7.26562 28.7891C7.53125 28.5938 7.73438 28.3164 7.875 27.957C8.01562 27.5898 8.08594 27.1523 8.08594 26.6445ZM26.543 28.8359V32H17.4492V28.8359H26.543ZM18.9141 14.9375V32H14.8008V14.9375H18.9141ZM25.3711 21.7109V24.7695H17.4492V21.7109H25.3711ZM26.5781 14.9375V18.1133H17.4492V14.9375H26.5781ZM41.0039 28.8359V32H28.6523V28.8359H41.0039ZM40.9219 17.0469L30.6914 32H27.7148V29.832L38.0625 14.9375H40.9219V17.0469ZM39.5977 14.9375V18.1133H27.6562V14.9375H39.5977Z" fill="#FB9333"/>
<path d="M63.9375 27.5352C63.9375 27.2305 63.8906 26.957 63.7969 26.7148C63.7109 26.4648 63.5469 26.2383 63.3047 26.0352C63.0625 25.8242 62.7227 25.6172 62.2852 25.4141C61.8477 25.2109 61.2812 25 60.5859 24.7812C59.8125 24.5312 59.0781 24.25 58.3828 23.9375C57.6953 23.625 57.0859 23.2617 56.5547 22.8477C56.0312 22.4258 55.6172 21.9375 55.3125 21.3828C55.0156 20.8281 54.8672 20.1836 54.8672 19.4492C54.8672 18.7383 55.0234 18.0938 55.3359 17.5156C55.6484 16.9297 56.0859 16.4297 56.6484 16.0156C57.2109 15.5938 57.875 15.2695 58.6406 15.043C59.4141 14.8164 60.2617 14.7031 61.1836 14.7031C62.4414 14.7031 63.5391 14.9297 64.4766 15.3828C65.4141 15.8359 66.1406 16.457 66.6562 17.2461C67.1797 18.0352 67.4414 18.9375 67.4414 19.9531H63.9492C63.9492 19.4531 63.8438 19.0156 63.6328 18.6406C63.4297 18.2578 63.1172 17.957 62.6953 17.7383C62.2812 17.5195 61.7578 17.4102 61.125 17.4102C60.5156 17.4102 60.0078 17.5039 59.6016 17.6914C59.1953 17.8711 58.8906 18.1172 58.6875 18.4297C58.4844 18.7344 58.3828 19.0781 58.3828 19.4609C58.3828 19.75 58.4531 20.0117 58.5938 20.2461C58.7422 20.4805 58.9609 20.6992 59.25 20.9023C59.5391 21.1055 59.8945 21.2969 60.3164 21.4766C60.7383 21.6562 61.2266 21.832 61.7812 22.0039C62.7109 22.2852 63.5273 22.6016 64.2305 22.9531C64.9414 23.3047 65.5352 23.6992 66.0117 24.1367C66.4883 24.5742 66.8477 25.0703 67.0898 25.625C67.332 26.1797 67.4531 26.8086 67.4531 27.5117C67.4531 28.2539 67.3086 28.918 67.0195 29.5039C66.7305 30.0898 66.3125 30.5859 65.7656 30.9922C65.2188 31.3984 64.5664 31.707 63.8086 31.918C63.0508 32.1289 62.2031 32.2344 61.2656 32.2344C60.4219 32.2344 59.5898 32.125 58.7695 31.9062C57.9492 31.6797 57.2031 31.3398 56.5312 30.8867C55.8672 30.4336 55.3359 29.8555 54.9375 29.1523C54.5391 28.4492 54.3398 27.6172 54.3398 26.6562H57.8672C57.8672 27.1875 57.9492 27.6367 58.1133 28.0039C58.2773 28.3711 58.5078 28.668 58.8047 28.8945C59.1094 29.1211 59.4688 29.2852 59.8828 29.3867C60.3047 29.4883 60.7656 29.5391 61.2656 29.5391C61.875 29.5391 62.375 29.4531 62.7656 29.2812C63.1641 29.1094 63.457 28.8711 63.6445 28.5664C63.8398 28.2617 63.9375 27.918 63.9375 27.5352ZM76.7812 17.8555L72.1406 32H68.4023L74.7422 14.9375H77.1211L76.7812 17.8555ZM80.6367 32L75.9844 17.8555L75.6094 14.9375H78.0117L84.3867 32H80.6367ZM80.4258 25.6484V28.4023H71.4141V25.6484H80.4258ZM96.9375 29.2578V32H88.3477V29.2578H96.9375ZM89.4844 14.9375V32H85.9688V14.9375H89.4844ZM106.125 17.8555L101.484 32H97.7461L104.086 14.9375H106.465L106.125 17.8555ZM109.98 32L105.328 17.8555L104.953 14.9375H107.355L113.73 32H109.98ZM109.77 25.6484V28.4023H100.758V25.6484H109.77ZM120.551 32H116.836L116.859 29.2578H120.551C121.473 29.2578 122.25 29.0508 122.883 28.6367C123.516 28.2148 123.992 27.6016 124.312 26.7969C124.641 25.9922 124.805 25.0195 124.805 23.8789V23.0469C124.805 22.1719 124.711 21.4023 124.523 20.7383C124.344 20.0742 124.074 19.5156 123.715 19.0625C123.355 18.6094 122.914 18.2695 122.391 18.043C121.867 17.8086 121.266 17.6914 120.586 17.6914H116.766V14.9375H120.586C121.727 14.9375 122.77 15.1328 123.715 15.5234C124.668 15.9062 125.492 16.457 126.188 17.1758C126.883 17.8945 127.418 18.7539 127.793 19.7539C128.176 20.7461 128.367 21.8516 128.367 23.0703V23.8789C128.367 25.0898 128.176 26.1953 127.793 27.1953C127.418 28.1953 126.883 29.0547 126.188 29.7734C125.5 30.4844 124.676 31.0352 123.715 31.4258C122.762 31.8086 121.707 32 120.551 32ZM118.828 14.9375V32H115.312V14.9375H118.828Z" fill="#585858"/>
</svg>
